<?xml version="1.0" encoding="UTF-8" standalone="no"?>
<svg
   viewBox="0 0 128 128"
   style="display:inline;enable-background:new"
   version="1.0"
   id="svg11300"
   height="128"
   width="128"
   xml:space="preserve"
   sodipodi:docname="goa-account-ms365.svg"
   inkscape:version="1.4.4 (dcaf3e7, 2026-05-05)"
   xmlns:inkscape="http://www.inkscape.org/namespaces/inkscape"
   xmlns:sodipodi="http://sodipodi.sourceforge.net/DTD/sodipodi-0.dtd"
   xmlns:xlink="http://www.w3.org/1999/xlink"
   xmlns="http://www.w3.org/2000/svg"
   xmlns:svg="http://www.w3.org/2000/svg"
   xmlns:rdf="http://www.w3.org/1999/02/22-rdf-syntax-ns#"
   xmlns:cc="http://creativecommons.org/ns#"
   xmlns:dc="http://purl.org/dc/elements/1.1/"><sodipodi:namedview
     id="namedview1"
     pagecolor="#ffffff"
     bordercolor="#000000"
     borderopacity="0.25"
     inkscape:showpageshadow="2"
     inkscape:pageopacity="0.0"
     inkscape:pagecheckerboard="0"
     inkscape:deskcolor="#d1d1d1"
     inkscape:zoom="6.3671875"
     inkscape:cx="64"
     inkscape:cy="64"
     inkscape:window-width="1920"
     inkscape:window-height="1057"
     inkscape:window-x="1912"
     inkscape:window-y="-8"
     inkscape:window-maximized="1"
     inkscape:current-layer="svg11300" /><title
     id="title4162">Adwaita Icon Template</title><defs
     id="defs3"><radialGradient
       id="paint0_radial_2994_8373"
       cx="0"
       cy="0"
       r="1"
       gradientUnits="userSpaceOnUse"
       gradientTransform="matrix(-11.700186,31.247009,-54.50117,-20.407516,17.4186,10.6383)"><stop
         offset="0.06441"
         stop-color="#AE7FE2"
         id="stop8" /><stop
         offset="1"
         stop-color="#0078D4"
         id="stop9" /></radialGradient><linearGradient
       id="paint1_linear_2994_8373"
       x1="17.5119"
       y1="37.8685"
       x2="12.7513"
       y2="29.6347"
       gradientUnits="userSpaceOnUse"><stop
         stop-color="#114A8B"
         id="stop10" /><stop
         offset="1"
         stop-color="#0078D4"
         stop-opacity="0"
         id="stop11" /></linearGradient><radialGradient
       id="paint2_radial_2994_8373"
       cx="0"
       cy="0"
       r="1"
       gradientUnits="userSpaceOnUse"
       gradientTransform="matrix(30.719797,-4.5183204,2.9846529,20.29248,10.4299,36.3511)"><stop
         offset="0.133928"
         stop-color="#D59DFF"
         id="stop12" /><stop
         offset="1"
         stop-color="#5E438F"
         id="stop13" /></radialGradient><linearGradient
       id="paint3_linear_2994_8373"
       x1="40.3566"
       y1="25.3768"
       x2="35.2552"
       y2="32.6916"
       gradientUnits="userSpaceOnUse"><stop
         stop-color="#493474"
         id="stop14" /><stop
         offset="1"
         stop-color="#8C66BA"
         stop-opacity="0"
         id="stop15" /></linearGradient><radialGradient
       id="paint4_radial_2994_8373"
       cx="0"
       cy="0"
       r="1"
       gradientUnits="userSpaceOnUse"
       gradientTransform="matrix(-24.158302,-6.1255536,10.311796,-40.668239,41.0552,26.504)"><stop
         offset="0.0584996"
         stop-color="#50E6FF"
         id="stop16" /><stop
         offset="1"
         stop-color="#436DCD"
         id="stop17" /></radialGradient><linearGradient
       id="paint5_linear_2994_8373"
       x1="16.9758"
       y1="3.05655"
       x2="24.4868"
       y2="3.05655"
       gradientUnits="userSpaceOnUse"><stop
         stop-color="#2D3F80"
         id="stop18" /><stop
         offset="1"
         stop-color="#436DCD"
         stop-opacity="0"
         id="stop19" /></linearGradient><radialGradient
       id="paint6_radial_2994_8373"
       cx="0"
       cy="0"
       r="1"
       gradientUnits="userSpaceOnUse"
       gradientTransform="matrix(-24.158302,-6.1255536,10.311796,-40.668239,41.0552,26.504)"><stop
         offset="0.0584996"
         stop-color="#50E6FF"
         id="stop20" /><stop
         offset="1"
         stop-color="#436DCD"
         id="stop21" /></radialGradient><linearGradient
       xlink:href="#paint5_linear_2994_8373"
       id="linearGradient2"
       gradientUnits="userSpaceOnUse"
       x1="16.9758"
       y1="3.05655"
       x2="24.4868"
       y2="3.05655" /><linearGradient
       xlink:href="#paint5_linear_2994_8373"
       id="linearGradient3"
       gradientUnits="userSpaceOnUse"
       x1="16.9758"
       y1="3.05655"
       x2="24.4868"
       y2="3.05655" /><radialGradient
       id="radial0"
       gradientUnits="userSpaceOnUse"
       cx="0"
       cy="0"
       fx="0"
       fy="0"
       r="1"
       gradientTransform="matrix(130.86481,156.80486,-260.08999,217.0636,48.669602,228.76649)"><stop
         offset="0"
         style="stop-color:rgb(28.235294%,58.039216%,99.607843%);stop-opacity:1;"
         id="stop1" /><stop
         offset="0.695072"
         style="stop-color:rgb(3.529412%,20.392157%,70.196078%);stop-opacity:1;"
         id="stop2" /></radialGradient><radialGradient
       id="radial1"
       gradientUnits="userSpaceOnUse"
       cx="0"
       cy="0"
       fx="0"
       fy="0"
       r="1"
       gradientTransform="matrix(-575.28967,663.594,-491.72849,-426.29427,596.9565,-6.380235)"><stop
         offset="0.165327"
         style="stop-color:rgb(13.72549%,75.294118%,99.607843%);stop-opacity:1;"
         id="stop3" /><stop
         offset="0.534"
         style="stop-color:rgb(10.980392%,56.862745%,100%);stop-opacity:1;"
         id="stop4" /></radialGradient><radialGradient
       id="radial2"
       gradientUnits="userSpaceOnUse"
       cx="0"
       cy="0"
       fx="0"
       fy="0"
       r="1"
       gradientTransform="matrix(-136.75338,-114.8067,262.81693,-313.05756,181.19699,240.39599)"><stop
         offset="0"
         style="stop-color:rgb(100%,100%,100%);stop-opacity:0.4;"
         id="stop5" /><stop
         offset="0.660528"
         style="stop-color:rgb(67.843137%,75.294118%,100%);stop-opacity:0;"
         id="stop6" /></radialGradient><radialGradient
       id="radial3"
       gradientUnits="userSpaceOnUse"
       cx="0"
       cy="0"
       fx="0"
       fy="0"
       r="1"
       gradientTransform="matrix(-153.63843,-130.00006,197.43301,-233.33295,375.35399,451.43549)"><stop
         offset="0"
         style="stop-color:rgb(1.176471%,22.745098%,80%);stop-opacity:1;"
         id="stop7" /><stop
         offset="1"
         style="stop-color:rgb(21.176471%,55.686275%,100%);stop-opacity:0;"
         id="stop8-0" /></radialGradient><radialGradient
       id="radial4"
       gradientUnits="userSpaceOnUse"
       cx="0"
       cy="0"
       fx="0"
       fy="0"
       r="1"
       gradientTransform="matrix(175.5859,405.19803,-437.43452,189.55505,169.37849,125.58929)"><stop
         offset="0.592618"
         style="stop-color:rgb(20.392157%,39.215686%,89.019608%);stop-opacity:0;"
         id="stop9-9" /><stop
         offset="1"
         style="stop-color:rgb(1.176471%,22.745098%,80%);stop-opacity:0.6;"
         id="stop10-4" /></radialGradient><radialGradient
       id="radial5"
       gradientUnits="userSpaceOnUse"
       cx="0"
       cy="0"
       fx="0"
       fy="0"
       r="1"
       gradientTransform="matrix(-459.32949,459.32949,-719.61446,-719.61446,589.8765,39.484649)"><stop
         offset="0"
         style="stop-color:rgb(29.411765%,99.215686%,90.980392%);stop-opacity:0.898039;"
         id="stop11-8" /><stop
         offset="0.543937"
         style="stop-color:rgb(29.411765%,99.215686%,90.980392%);stop-opacity:0;"
         id="stop12-8" /></radialGradient><linearGradient
       id="linear0"
       gradientUnits="userSpaceOnUse"
       x1="29.999701"
       y1="37.9823"
       x2="29.999701"
       y2="18.398199"
       gradientTransform="scale(15)"><stop
         offset="0"
         style="stop-color:rgb(0%,52.54902%,100%);stop-opacity:1;"
         id="stop13-2" /><stop
         offset="0.49"
         style="stop-color:rgb(0%,73.333333%,100%);stop-opacity:1;"
         id="stop14-4" /></linearGradient><radialGradient
       id="radial6"
       gradientUnits="userSpaceOnUse"
       cx="0"
       cy="0"
       fx="0"
       fy="0"
       r="1"
       gradientTransform="matrix(273.62211,108.51368,-205.48843,518.14826,296.48849,307.44149)"><stop
         offset="0"
         style="stop-color:rgb(100%,100%,100%);stop-opacity:0.4;"
         id="stop15-5" /><stop
         offset="0.785262"
         style="stop-color:rgb(100%,100%,100%);stop-opacity:0;"
         id="stop16-5" /></radialGradient><radialGradient
       id="radial7"
       gradientUnits="userSpaceOnUse"
       cx="0"
       cy="0"
       fx="0"
       fy="0"
       r="1"
       gradientTransform="matrix(-305.68391,263.45922,-264.35232,-306.72015,674.8455,249.378)"><stop
         offset="0"
         style="stop-color:rgb(29.411765%,99.215686%,90.980392%);stop-opacity:0.898039;"
         id="stop17-1" /><stop
         offset="0.584724"
         style="stop-color:rgb(29.411765%,99.215686%,90.980392%);stop-opacity:0;"
         id="stop18-7" /></radialGradient></defs><metadata
     id="metadata4"><rdf:RDF><cc:Work
         rdf:about=""><dc:format>image/svg+xml</dc:format><dc:type
           rdf:resource="http://purl.org/dc/dcmitype/StillImage" /><dc:creator><cc:Agent><dc:title>GNOME Design Team</dc:title></cc:Agent></dc:creator><dc:source /><cc:license
           rdf:resource="http://creativecommons.org/licenses/by-sa/4.0/" /><dc:title>Adwaita Icon Template</dc:title><dc:subject><rdf:Bag /></dc:subject><dc:date /><dc:rights><cc:Agent><dc:title /></cc:Agent></dc:rights><dc:publisher><cc:Agent><dc:title /></cc:Agent></dc:publisher><dc:identifier /><dc:relation /><dc:language /><dc:coverage /><dc:description /><dc:contributor><cc:Agent><dc:title /></cc:Agent></dc:contributor></cc:Work><cc:License
         rdf:about="http://creativecommons.org/licenses/by-sa/4.0/"><cc:permits
           rdf:resource="http://creativecommons.org/ns#Reproduction" /><cc:permits
           rdf:resource="http://creativecommons.org/ns#Distribution" /><cc:requires
           rdf:resource="http://creativecommons.org/ns#Notice" /><cc:requires
           rdf:resource="http://creativecommons.org/ns#Attribution" /><cc:permits
           rdf:resource="http://creativecommons.org/ns#DerivativeWorks" /><cc:requires
           rdf:resource="http://creativecommons.org/ns#ShareAlike" /></cc:License></rdf:RDF></metadata><rect
     y="11.99988"
     x="12"
     height="104.00024"
     width="104"
     id="rect929-36-9"
     style="display:inline;vector-effect:none;fill:#f6f5f4;fill-opacity:1;stroke:none;stroke-width:0.25;stroke-linecap:butt;stroke-linejoin:miter;stroke-miterlimit:4;stroke-dasharray:none;stroke-dashoffset:0;stroke-opacity:1;marker:none;marker-start:none;marker-mid:none;marker-end:none;paint-order:normal;enable-background:new"
     rx="16" /><g
     id="surface1"
     transform="matrix(0.14697548,0,0,0.14697548,10.916647,11.070615)"><path
       style="fill:url(#radial0);fill-rule:nonzero;stroke:none"
       d="m 215.07812,205.08984 c -99.0664,0.004 -173.121089,81.09766 -178.695308,171.4375 3.453126,19.46485 14.792969,57.90235 32.558594,55.92969 22.203125,-2.46875 78.125004,0 125.824214,-86.35156 34.84375,-63.07813 106.51954,-141.01953 20.3125,-141.01563 z m 0,0"
       id="path18" /><path
       style="fill:url(#radial1);fill-rule:nonzero;stroke:none"
       d="m 192.17187,238.8125 c -33.30078,52.72266 -78.1289,128.27344 -93.257808,152.04687 -17.984374,28.26172 -65.609374,16.25391 -61.664062,-24.25 -0.386719,3.28516 -0.6875,6.60157 -0.894531,9.9375 -6.511719,105.38672 77.042971,192.90625 181.019531,192.90625 114.59375,0 387.89453,-142.78125 360.23437,-285.84375 -29.15234,-84.08984 -111.08593,-144.40625 -203.94531,-144.40625 -92.85547,0 -152.36719,53.4961 -181.49219,99.60938 z m 0,0"
       id="path19" /><path
       style="fill:url(#radial2);fill-rule:nonzero;stroke:none"
       d="m 192.17187,238.8125 c -33.30078,52.72266 -78.1289,128.27344 -93.257808,152.04687 -17.984374,28.26172 -65.609374,16.25391 -61.664062,-24.25 -0.386719,3.28516 -0.6875,6.60157 -0.894531,9.9375 -6.511719,105.38672 77.042971,192.90625 181.019531,192.90625 114.59375,0 387.89453,-142.78125 360.23437,-285.84375 -29.15234,-84.08984 -111.08593,-144.40625 -203.94531,-144.40625 -92.85547,0 -152.36719,53.4961 -181.49219,99.60938 z m 0,0"
       id="path20" /><path
       style="fill:url(#radial3);fill-rule:nonzero;stroke:none"
       d="m 192.17187,238.8125 c -33.30078,52.72266 -78.1289,128.27344 -93.257808,152.04687 -17.984374,28.26172 -65.609374,16.25391 -61.664062,-24.25 -0.386719,3.28516 -0.6875,6.60157 -0.894531,9.9375 -6.511719,105.38672 77.042971,192.90625 181.019531,192.90625 114.59375,0 387.89453,-142.78125 360.23437,-285.84375 -29.15234,-84.08984 -111.08593,-144.40625 -203.94531,-144.40625 -92.85547,0 -152.36719,53.4961 -181.49219,99.60938 z m 0,0"
       id="path21" /><path
       style="fill:url(#radial4);fill-rule:nonzero;stroke:none"
       d="m 192.17187,238.8125 c -33.30078,52.72266 -78.1289,128.27344 -93.257808,152.04687 -17.984374,28.26172 -65.609374,16.25391 -61.664062,-24.25 -0.386719,3.28516 -0.6875,6.60157 -0.894531,9.9375 -6.511719,105.38672 77.042971,192.90625 181.019531,192.90625 114.59375,0 387.89453,-142.78125 360.23437,-285.84375 -29.15234,-84.08984 -111.08593,-144.40625 -203.94531,-144.40625 -92.85547,0 -152.36719,53.4961 -181.49219,99.60938 z m 0,0"
       id="path22" /><path
       style="fill:url(#radial5);fill-rule:nonzero;stroke:none"
       d="m 192.17187,238.8125 c -33.30078,52.72266 -78.1289,128.27344 -93.257808,152.04687 -17.984374,28.26172 -65.609374,16.25391 -61.664062,-24.25 -0.386719,3.28516 -0.6875,6.60157 -0.894531,9.9375 -6.511719,105.38672 77.042971,192.90625 181.019531,192.90625 114.59375,0 387.89453,-142.78125 360.23437,-285.84375 -29.15234,-84.08984 -111.08593,-144.40625 -203.94531,-144.40625 -92.85547,0 -152.36719,53.4961 -181.49219,99.60938 z m 0,0"
       id="path23" /><path
       style="fill:url(#linear0);fill-rule:nonzero;stroke:none"
       d="m 215.69922,569.49609 c 0,0 273.62109,0.53907 320.03515,0.53907 C 619.96094,570.03516 684,501.27344 684,421.03125 684,340.78906 618.67187,272.44531 535.73437,272.44531 c -82.9414,0 -130.70703,62.04688 -166.58203,129.78125 -42.03515,79.36719 -95.66406,166.32031 -153.45312,167.26953 z m 0,0"
       id="path24" /><path
       style="fill:url(#radial6);fill-rule:nonzero;stroke:none"
       d="m 215.69922,569.49609 c 0,0 273.62109,0.53907 320.03515,0.53907 C 619.96094,570.03516 684,501.27344 684,421.03125 684,340.78906 618.67187,272.44531 535.73437,272.44531 c -82.9414,0 -130.70703,62.04688 -166.58203,129.78125 -42.03515,79.36719 -95.66406,166.32031 -153.45312,167.26953 z m 0,0"
       id="path25" /><path
       style="fill:url(#radial7);fill-rule:nonzero;stroke:none"
       d="m 215.69922,569.49609 c 0,0 273.62109,0.53907 320.03515,0.53907 C 619.96094,570.03516 684,501.27344 684,421.03125 684,340.78906 618.67187,272.44531 535.73437,272.44531 c -82.9414,0 -130.70703,62.04688 -166.58203,129.78125 -42.03515,79.36719 -95.66406,166.32031 -153.45312,167.26953 z m 0,0"
       id="path26" /></g></svg>
